<svg xmlns="http://www.w3.org/2000/svg" xmlns:xlink="http://www.w3.org/1999/xlink" x="130" y="30" width="100%" height="100%" style="overflow:visible"><path transform="translate(0 0)" d="M8.28809,21.3379Q11.4775,24.8193 15.6328,24.7295Q19.0469,24.6846 20.6978,22.3823Q22.3486,20.0801 21.9219,15.9248L19.2715,0L15.2061,0L17.8789,15.9922Q18.0137,17.0928 17.9014,18.0361Q17.5195,21.1807 14.1953,21.248Q10.4668,21.3379 7.77148,17.3398L4.76172,0L0.696289,0L6.69336,34.5L10.7588,34.5L8.28809,21.3379Z"/><path transform="translate(25 0)" d="M15.5654,0Q15.4082,0.651367 15.4082,1.28027L15.4756,2.56055Q12.1289,-0.539062 8.37793,-0.449219Q5.16602,-0.404297 3.15576,1.5835Q1.14551,3.57129 1.3252,6.55859Q1.5498,10.4219 4.70557,12.5894Q7.86133,14.7568 13.0049,14.7568L17.25,14.7344L17.5195,16.666Q17.7441,18.8447 16.6772,20.1138Q15.6104,21.3828 13.4766,21.4277Q11.3877,21.4727 9.78174,20.4058Q8.17578,19.3389 7.81641,17.5869L3.72852,17.5645Q3.93066,19.6982 5.39062,21.3491Q6.85059,23 9.1416,23.9097Q11.4326,24.8193 13.8809,24.7744Q17.6768,24.6846 19.7881,22.4722Q21.8994,20.2598 21.5625,16.5986L19.5859,4.55957L19.4736,2.83008Q19.4287,1.59473 19.7432,0.381836L19.6982,0L15.5654,0ZM9.18652,3.14453Q11.1406,3.09961 12.8813,4.07666Q14.6221,5.05371 15.8799,6.7832L16.7559,11.792L13.6787,11.8145Q9.83789,11.8145 7.79395,10.6016Q5.75,9.38867 5.48047,7.16504Q5.27832,5.45801 6.27783,4.32373Q7.27734,3.18945 9.18652,3.14453Z"/><path transform="translate(50 0)" d="M15.8125,20.5967L13.9033,20.7988Q9.99512,20.7988 7.74902,17.2725L4.76172,0L0.696289,0L4.91895,24.3027L8.84961,24.3252L8.24316,21.4951Q10.8262,24.8867 14.3301,24.7969Q15.0713,24.7969 16.2617,24.46L15.8125,20.5967Z"/><path transform="translate(65 0)" d="M15.7451,6.58105Q16.082,9.09668 12.9824,10.1299L8.75977,11.3652Q3.41406,13.207 3.59375,17.4746Q3.75098,20.6865 6.5249,22.7417Q9.29883,24.7969 13.0498,24.752Q16.7334,24.707 19.0356,22.6069Q21.3379,20.5068 21.248,17.1377L17.2051,17.1602Q17.25,18.9795 16.0596,20.125Q14.8691,21.2705 12.8926,21.3154Q10.7812,21.3604 9.25391,20.2822Q7.83887,19.2715 7.61426,17.6318Q7.32227,15.5205 10.1973,14.5547L12.2412,13.9932Q16.4189,12.915 18.1709,11.1855Q19.9229,9.45605 19.7881,6.89551Q19.6533,4.62695 18.3057,2.94238Q16.958,1.25781 14.7119,0.370605Q12.4658,-0.516602 9.92773,-0.449219Q6.06445,-0.404297 3.54883,1.80811Q1.0332,4.02051 1.12305,7.50195L5.18848,7.47949Q5.18848,5.43555 6.49121,4.2002Q7.79395,2.96484 10.0625,2.96484Q12.2861,2.91992 13.9033,3.89697Q15.5205,4.87402 15.7451,6.58105Z"/><path transform="translate(88 0)" d="M8.28809,21.3379Q11.4775,24.8193 15.6328,24.7295Q19.0469,24.6846 20.6978,22.3823Q22.3486,20.0801 21.9219,15.9248L19.2715,0L15.2061,0L17.8789,15.9922Q18.0137,17.0928 17.9014,18.0361Q17.5195,21.1807 14.1953,21.248Q10.4668,21.3379 7.77148,17.3398L4.76172,0L0.696289,0L6.69336,34.5L10.7588,34.5L8.28809,21.3379Z"/><path transform="translate(113 0)" d="M15.5654,0Q15.4082,0.651367 15.4082,1.28027L15.4756,2.56055Q12.1289,-0.539062 8.37793,-0.449219Q5.16602,-0.404297 3.15576,1.5835Q1.14551,3.57129 1.3252,6.55859Q1.5498,10.4219 4.70557,12.5894Q7.86133,14.7568 13.0049,14.7568L17.25,14.7344L17.5195,16.666Q17.7441,18.8447 16.6772,20.1138Q15.6104,21.3828 13.4766,21.4277Q11.3877,21.4727 9.78174,20.4058Q8.17578,19.3389 7.81641,17.5869L3.72852,17.5645Q3.93066,19.6982 5.39062,21.3491Q6.85059,23 9.1416,23.9097Q11.4326,24.8193 13.8809,24.7744Q17.6768,24.6846 19.7881,22.4722Q21.8994,20.2598 21.5625,16.5986L19.5859,4.55957L19.4736,2.83008Q19.4287,1.59473 19.7432,0.381836L19.6982,0L15.5654,0ZM9.18652,3.14453Q11.1406,3.09961 12.8813,4.07666Q14.6221,5.05371 15.8799,6.7832L16.7559,11.792L13.6787,11.8145Q9.83789,11.8145 7.79395,10.6016Q5.75,9.38867 5.48047,7.16504Q5.27832,5.45801 6.27783,4.32373Q7.27734,3.18945 9.18652,3.14453Z"/></svg>